<?xml version="1.0" encoding="UTF-8" standalone="no"?>
<!-- Created with Inkscape (http://www.inkscape.org/) -->

<svg
   xmlns:dc="http://purl.org/dc/elements/1.1/"
   xmlns:cc="http://creativecommons.org/ns#"
   xmlns:rdf="http://www.w3.org/1999/02/22-rdf-syntax-ns#"
   xmlns:svg="http://www.w3.org/2000/svg"
   xmlns="http://www.w3.org/2000/svg"
   xmlns:sodipodi="http://sodipodi.sourceforge.net/DTD/sodipodi-0.dtd"
   xmlns:inkscape="http://www.inkscape.org/namespaces/inkscape"
   version="1.1"
   id="svg825"
   width="98.167656"
   height="109.22468"
   viewBox="0 0 98.16765 109.22468"
   sodipodi:docname="logo.svg"
   inkscape:version="0.92.4 (5da689c313, 2019-01-14)">
  <metadata
     id="metadata831">
    <rdf:RDF>
      <cc:Work
         rdf:about="">
        <dc:format>image/svg+xml</dc:format>
        <dc:type
           rdf:resource="http://purl.org/dc/dcmitype/StillImage" />
        <dc:title></dc:title>
      </cc:Work>
    </rdf:RDF>
  </metadata>
  <defs
     id="defs829" />
  <sodipodi:namedview
     pagecolor="#ffffff"
     bordercolor="#666666"
     borderopacity="1"
     objecttolerance="10"
     gridtolerance="10"
     guidetolerance="10"
     inkscape:pageopacity="0"
     inkscape:pageshadow="2"
     inkscape:window-width="1818"
     inkscape:window-height="1046"
     id="namedview827"
     showgrid="false"
     inkscape:zoom="2.36"
     inkscape:cx="8.4027739"
     inkscape:cy="28.364927"
     inkscape:window-x="91"
     inkscape:window-y="-11"
     inkscape:window-maximized="1"
     inkscape:current-layer="svg825"
     fit-margin-top="0"
     fit-margin-left="0"
     fit-margin-right="0"
     fit-margin-bottom="0" />
  <path
     inkscape:connector-curvature="0"
     id="path1384"
     d="m 57.927941,96.104674 c -0.3863,-0.61242 -1.98667,-0.74154 -5.03336,-0.4061 -0.75921,0.0836 -1.07102,-0.17018 -1.63963,-1.33443 -0.846325,-1.73288 -0.448215,-3.021 1.04988,-3.397 0.53363,-0.13393 1.85494,-0.91426 2.93624,-1.73407 1.08131,-0.8198 2.29264,-1.49128 2.69184,-1.49217 0.39921,-0.001 1.10204,-0.35504 1.56185,-0.78701 1.07221,-1.00728 2.39982,-0.67652 2.39982,0.5979 0,0.55628 0.27837,0.97531 0.74665,1.12394 0.87374,0.27731 1.50335,-0.0264 1.50335,-0.72515 0,-0.62987 0.99541,-1.47436 1.25079,-1.06115 0.1059,0.17135 0.24205,1.52414 0.30256,3.00619 0.10367,2.53925 0.0466,2.76081 -0.98977,3.84254 -1.1649,1.2159 -4.55468,3.00113 -5.69852,3.00113 -0.37477,0 -0.86153,-0.28558 -1.0817,-0.63462 z m 9.75732,-11.02569 c -0.13948,-0.22567 -0.69787,-0.32405 -1.24088,-0.21861 -1.7217,0.33431 -3.0498,-0.11762 -3.0498,-1.03778 0,-0.5618 -0.37778,-0.99317 -1.19049,-1.35937 -1.25142,-0.56388 -2.14547,-1.63797 -1.71867,-2.06477 0.1385,-0.1385 0.55441,-0.114 0.92424,0.0545 0.36983,0.16844 1.45257,0.31806 2.40607,0.33248 0.95351,0.0145 2.19224,0.27165 2.75274,0.57162 0.93507,0.50044 2.45111,2.81512 2.45111,3.74235 0,0.51678 -1.01189,0.50133 -1.33432,-0.0204 z m -18.728174,-0.31296 c -2.414065,-0.58258 -4.2617,-2.28549 -6.593465,-6.07699 -1.46128,-2.37606 -1.45842,-2.99684 0.01015,-2.21087 0.9301,0.49778 1.06016,-0.15025 0.26326,-1.31168 -0.279135,-0.40683 -0.608415,-1.74844 -0.731715,-2.98135 -0.148955,-1.48936 -0.440365,-2.39974 -0.868315,-2.71266 -0.354265,-0.25905 -0.92196,-1.27511 -1.261545,-2.25792 -0.376335,-1.08919 -0.87557,-1.83664 -1.27855,-1.91425 -1.064465,-0.205 -3.367795,2.77234 -3.67234,4.74693 -0.14162,0.91825 -0.436935,1.84899 -0.65625,2.0683 -0.81717,0.81718 -1.22186,-0.47619 -1.405785,-4.4928 -0.14883,-3.25023 -0.323455,-4.21278 -0.866185,-4.77452 -0.56633,-0.58616 -2.111237,0.44923 -1.778557,-0.5267 1.712825,-5.02463 8.910537,-12.396 14.513082,-15.10193 3.83315,-1.85134 5.670544,-3.083069 9.493619,-2.796439 1.89346,0.14196 4.25274,1.216099 4.60199,1.471469 0.82068,0.60011 1.10614,3.21968 0.35085,3.21968 -0.29226,0 -0.71094,-0.33551 -0.9304,-0.74558 -0.46144,-0.8622 -1.85294,-1.30674 -2.97531,-0.95052 -0.9676,0.30711 -1.01314,1.19562 -0.0765,1.4929 0.3853,0.12229 1.00208,0.55553 1.37062,0.96277 0.62446,0.69002 0.62783,0.78712 0.0495,1.42621 -0.34134,0.37718 -0.62062,0.83036 -0.62062,1.00708 0,0.17671 -0.37676,0.72234 -0.83724,1.21251 -0.81326,0.86567 -0.81863,0.92362 -0.1875,2.0233 0.35736,0.62266 0.64974,1.28718 0.64974,1.47672 0,0.73409 -1.10345,0.29099 -2.03638,-0.81774 -1.34475,-1.59815 -2.17627,-1.26015 -1.65437,0.67247 0.21199,0.78506 0.53852,1.58769 0.7256,1.78363 0.52629,0.55119 0.40202,2.967 -0.21638,4.20661 -0.78588,1.57534 -3.837949,3.48762 -5.162214,3.2344 -0.93929,-0.17961 -1.03125,-0.0971 -1.03125,0.92561 0,0.61754 0.24866,1.32917 0.55258,1.5814 0.303915,0.25222 0.66229,1.04343 0.796385,1.75822 0.20564,1.09615 0.07878,1.47189 -0.810235,2.39982 -1.29974,1.35664 -1.496815,1.36306 -2.11707,0.0689 -0.62399,-1.30191 -1.57288,-1.34268 -1.720685,-0.0739 -0.073,0.62667 0.29327,1.46668 1.060465,2.43207 0.88584,1.11469 1.122055,1.72439 0.967485,2.49724 -0.15195,0.75975 0.129635,1.52985 1.09579,2.99688 0.71516,1.08591 1.300285,2.1048 1.300285,2.26419 0,0.15939 0.41089,0.2898 0.91309,0.2898 1.391445,0 2.836904,0.66402 2.836904,1.30322 0,0.61369 -0.307595,0.64702 -2.062494,0.22351 z m 4.681754,-2.53307 c -0.003,-0.58089 -0.15304,-1.28872 -0.33307,-1.57295 -0.41139,-0.6495 -1.16119,-0.2208 -1.16119,0.66392 0,1.01803 -0.28512,1.11278 -1.907295,0.63381 -0.977704,-0.28868 -1.677659,-0.79043 -2.018099,-1.44662 -0.60867,-1.17322 -0.351425,-1.58675 2.377019,-3.82107 1.312855,-1.0751 1.745365,-1.25409 2.172925,-0.89926 0.33896,0.28132 0.4541,0.8059 0.31543,1.43723 -0.1201,0.54681 -0.0762,1.37851 0.0975,1.84821 0.2829,0.76475 0.36757,0.79177 0.81011,0.25854 0.74679,-0.89983 2.65236,-0.78881 2.65236,0.15453 0,0.4125 -0.15856,0.75 -0.35236,0.75 -0.1938,0 -0.40474,0.63281 -0.46875,1.40625 -0.10105,1.22088 -0.25232,1.42189 -1.14764,1.52491 -0.90791,0.10447 -1.03193,-0.008 -1.03699,-0.9375 z m 0.27802,-11.74397 c -1.11645,-0.87821 -1.28637,-1.56368 -0.54095,-2.18232 0.59102,-0.4905 1.59689,0.0504 1.22193,0.65713 -0.1473,0.23835 -0.0686,0.67341 0.17491,0.96682 0.82234,0.99085 0.20551,1.39327 -0.85589,0.55837 z m -23.688269,-5.62469 c 0.608417,-2.96674 0.915995,-2.86147 0.915995,-1.08417 0,0.7237 -0.185909,2.16773 -0.504684,2.56809 -0.538355,0.67614 -0.729462,0.0674 -0.411311,-1.48392 z m 26.170779,-6.20268 c -0.33192,-0.86496 2.81799,-3.68249 3.49176,-3.12331 0.85187,0.70698 0.5688,1.39895 -1.05281,2.57364 -1.76978,1.28202 -2.12703,1.36253 -2.43895,0.54967 z m 1.72802,-5.07944 c -0.48422,-0.90478 -0.26413,-1.28107 0.56352,-0.96347 0.62535,0.23996 0.8124,1.74559 0.21687,1.74559 -0.199,0 -0.55017,-0.35195 -0.78039,-0.78212 z"
     style="fill:#67b775;stroke-width:0.375"
     sodipodi:nodetypes="csccsccscscccscccssscccsccccccccccccscssscsscsccsccscccscsccccscccsssccccsccccccsssccccccccsscssccsccsc" />
  <path
     inkscape:connector-curvature="0"
     id="path1382"
     d="m 50.987691,97.701634 c -8.059934,-1.6881 -14.912729,-6.97057 -18.518349,-14.27484 -2.18571,-4.42781 -2.87655,-7.56595 -2.796325,-12.7023 0.05477,-3.50712 0.16715,-4.18078 0.803585,-4.81721 0.549375,-0.54938 0.70395,-1.1169 0.600285,-2.20395 -0.154215,-1.61708 0.03875,-1.78879 0.90783,-0.80779 0.41847,0.47237 0.635015,1.79695 0.772815,4.72719 0.18894,4.01787 0.594435,5.30918 1.41081,4.4928 0.219315,-0.21931 0.51463,-1.15005 0.65625,-2.0683 0.304545,-1.97459 2.607875,-4.95193 3.67234,-4.74693 0.40298,0.0776 0.902215,0.82506 1.27855,1.91425 0.339585,0.98281 0.90728,1.99887 1.261545,2.25792 0.42795,0.31292 0.71936,1.2233 0.868315,2.71266 0.1233,1.23291 0.45258,2.57452 0.731715,2.98135 0.7969,1.16143 0.66684,1.80946 -0.26326,1.31168 -1.468595,-0.78597 -1.471455,-0.16519 -0.01015,2.21087 2.498625,4.06281 4.397895,5.6883 7.249715,6.20463 1.136004,0.20569 1.406249,0.14147 1.406249,-0.33416 -2e-5,-0.65388 -1.431849,-1.32021 -2.836924,-1.32021 -0.5022,0 -0.91309,-0.13041 -0.91309,-0.2898 0,-0.15939 -0.585125,-1.17828 -1.300285,-2.26419 -0.966155,-1.46703 -1.24774,-2.23713 -1.09579,-2.99688 0.15457,-0.77285 -0.08165,-1.38255 -0.967485,-2.49724 -0.767195,-0.96539 -1.13347,-1.8054 -1.060465,-2.43207 0.147805,-1.26875 1.096695,-1.22798 1.720685,0.0739 0.620255,1.29412 0.81733,1.2877 2.11707,-0.0689 0.889015,-0.92793 1.015875,-1.30367 0.810235,-2.39982 -0.134095,-0.71479 -0.49247,-1.506 -0.796385,-1.75822 -0.30392,-0.25223 -0.55258,-0.96386 -0.55258,-1.5814 0,-1.02268 0.09196,-1.10522 1.03125,-0.92561 1.324265,0.25322 4.376334,-1.65906 5.162214,-3.2344 0.6184,-1.23961 0.74267,-3.65542 0.21638,-4.20661 -0.18708,-0.19594 -0.51361,-0.99857 -0.7256,-1.78363 -0.5219,-1.93262 0.30962,-2.27062 1.65437,-0.67247 0.93293,1.10873 2.03638,1.55183 2.03638,0.81774 0,-0.18954 -0.29238,-0.85406 -0.64974,-1.47672 -0.63113,-1.09968 -0.62576,-1.15763 0.1875,-2.0233 0.46048,-0.49017 0.83724,-1.0358 0.83724,-1.21251 0,-0.17672 0.27928,-0.6299 0.62062,-1.00708 0.57837,-0.63909 0.57501,-0.73619 -0.0495,-1.42621 -0.36854,-0.40724 -0.98532,-0.84048 -1.37062,-0.96277 -0.99598,-0.31612 -0.86756,-1.2406 0.20989,-1.51102 1.21179,-0.30414 2.37707,0.10004 2.85316,0.98961 0.68221,1.27472 1.46533,0.88929 1.32693,-0.65308 -0.1522,-1.6961 -1.00466,-2.370505 -3.00595,-2.378055 -0.83714,-0.003 -1.7752,-0.185175 -2.08457,-0.404475 -0.96433,-0.68358 6.11757,-0.01915 8.9117,0.8361 10.71446,3.27956 18.12812,12.70757 19.09901,24.28836 0.36978,4.41079 -1.21664,10.79765 -3.70299,14.90803 -2.49845,4.13039 -6.91172,8.28278 -10.99522,10.34529 -4.93332,2.49173 -11.61521,3.43881 -16.7194,2.36978 z m 10.66202,-1.88894 c 1.07727,-0.50963 2.45357,-1.44317 3.05845,-2.07453 1.03637,-1.08173 1.09344,-1.30329 0.98977,-3.84254 -0.0605,-1.48205 -0.19666,-2.83484 -0.30256,-3.00619 -0.25538,-0.41321 -1.25079,0.43128 -1.25079,1.06115 0,0.69876 -0.62961,1.00246 -1.50335,0.72515 -0.46828,-0.14863 -0.74665,-0.56766 -0.74665,-1.12394 0,-1.27442 -1.32761,-1.60518 -2.39982,-0.5979 -0.45981,0.43197 -1.16264,0.78613 -1.56185,0.78701 -0.3992,0.001 -1.61053,0.67237 -2.69184,1.49217 -1.0813,0.81981 -2.40261,1.60014 -2.93624,1.73407 -1.498095,0.376 -1.896205,1.66412 -1.04988,3.397 0.56861,1.16425 0.88042,1.41802 1.63963,1.33443 3.04669,-0.33544 4.64706,-0.20632 5.03336,0.4061 0.54651,0.8664 1.41761,0.79806 3.72177,-0.29198 z m 7.36987,-10.71334 c 0,-0.92723 -1.51604,-3.24191 -2.45111,-3.74235 -0.5605,-0.29997 -1.79923,-0.55719 -2.75274,-0.57162 -0.9535,-0.0144 -2.03624,-0.16404 -2.40607,-0.33248 -0.36983,-0.16845 -0.78574,-0.19295 -0.92424,-0.0545 -0.4268,0.4268 0.46725,1.50089 1.71867,2.06477 0.81271,0.3662 1.19049,0.79757 1.19049,1.35937 0,0.92016 1.3281,1.37209 3.0498,1.03778 0.54301,-0.10544 1.1014,-0.007 1.24088,0.21861 0.32243,0.5217 1.33432,0.53715 1.33432,0.0204 z m -13.19611,-3.45381 c 0.064,-0.77344 0.27495,-1.40625 0.46875,-1.40625 0.1938,0 0.35236,-0.3375 0.35236,-0.75 0,-0.94334 -1.90557,-1.05436 -2.65236,-0.15453 -0.44254,0.53323 -0.52721,0.50621 -0.81011,-0.25854 -0.17375,-0.4697 -0.21765,-1.3014 -0.0975,-1.84821 0.13867,-0.63133 0.0235,-1.15591 -0.31543,-1.43723 -0.42756,-0.35483 -0.86007,-0.17584 -2.172925,0.89926 -2.728444,2.23432 -2.985689,2.64785 -2.377019,3.82107 0.34044,0.65619 1.040395,1.15794 2.018099,1.44662 1.622175,0.47897 1.907295,0.38422 1.907295,-0.63381 0,-0.88472 0.7498,-1.31342 1.16119,-0.66392 0.18003,0.28423 0.32991,0.99206 0.33307,1.57295 0.005,0.92984 0.12908,1.04197 1.03699,0.9375 0.89532,-0.10302 1.04659,-0.30403 1.14764,-1.52491 z m -1.05072,-11.71493 c -0.2435,-0.29341 -0.32221,-0.72847 -0.17491,-0.96682 0.37496,-0.60669 -0.63091,-1.14763 -1.22193,-0.65713 -0.74542,0.61864 -0.5755,1.30411 0.54095,2.18232 1.0614,0.8349 1.67823,0.43248 0.85589,-0.55837 z m 4.06557,-11.81867 c 1.62161,-1.17469 1.90468,-1.86666 1.05281,-2.57364 -0.67377,-0.55918 -3.82368,2.25835 -3.49176,3.12331 0.31192,0.81286 0.66917,0.73235 2.43895,-0.54967 z m 0.43126,-4.50942 c 0,-0.73019 -0.93913,-1.4241 -1.35905,-1.00417 -0.28179,0.28179 0.55632,1.76594 0.99725,1.76594 0.19899,0 0.3618,-0.34279 0.3618,-0.76177 z"
     style="fill:#5e8ea3;stroke-width:0.375"
     sodipodi:nodetypes="cscscccsscccccccccssscsccsccscssccsscscccscccscssssccccsssccccccccccccscsccccccsccscsscssccccscccssssscssc" />
  <path
     inkscape:connector-curvature="0"
     id="path1380"
     d="m 51.010231,109.07422 c -0.515625,-0.0939 -2.426609,-0.2388 -4.258069,-0.55872 -3.950305,-0.69003 -8.67487,-2.28793 -12.74475,-4.3104 -1.622315,-0.8062 -3.00569,-1.46581 -3.07415,-1.46581 -0.06846,0 -0.175485,0.88594 -0.237825,1.96875 -0.11335,1.96875 -0.11335,1.96875 -11.73835,1.82358 -12.4020203,-0.15487 -13.8429253,-0.33878 -16.0915153,-2.05386 -2.40970002,-1.83797 -3.59351002,-6.358906 -2.38993502,-9.127076 1.55643002,-3.57969 4.13181002,-4.96966 9.85645032,-5.31963 3.75,-0.22926 3.75,-0.22926 3.739585,-3.13551 -0.0057,-1.59844 -0.0479,-18.00937 -0.09375,-36.46875 -0.08333,-33.5625 -0.08333,-33.5625 -2.817045,-33.5625 -3.1713853,0 -6.6440803,-0.80889 -8.1858353,-1.90672 -0.59266,-0.42201 -1.51834,-1.519425 -2.05707002,-2.4387 -0.86772,-1.480645 -0.96351,-1.988295 -0.8393,-4.4479745 0.122635,-2.428465 0.284715,-2.956315 1.29283502,-4.210335 2.682065,-3.33627302 5.21794,-3.84270702 19.3267103,-3.85969402081 8.42963,-0.0101499992 9.644215,0.0616100008 9.84375,0.58159100081 0.125195,0.326244 0.22762,8.84811802 0.22762,18.93750252 0,10.08938 0.10051,18.34433 0.22336,18.34433 0.12285,0 0.708655,-0.34556 1.301785,-0.76791 1.9724,-1.40447 8.742895,-4.427285 12.05706,-5.383095 8.748779,-2.52317 18.920329,-2.184355 27.200069,0.906035 10.57494,3.94706 20.25899,13.70505 24.07938,24.26321 4.421569,12.21959 3.00582,25.40954 -3.80556,35.45495 -5.68271,8.380846 -15.02779,14.279296 -25.70047,16.221656 -3.20086,0.58254 -13.22732,0.85886 -15.11498,0.51508 z m 12.19685,-11.973446 c 8.34661,-2.61332 14.96736,-8.93198 17.64175,-16.8368 1.27259,-3.76146 1.80366,-7.2368 1.55646,-10.18544 -0.98174,-11.71018 -8.35956,-20.99117 -19.38571,-24.38638 -3.6143,-1.11293 -10.53817,-1.18204 -14.062494,-0.14036 -6.87635,2.03243 -13.392495,7.32803 -16.275335,13.2268 -0.678225,1.38776 -1.409315,2.85369 -1.62465,3.25762 -1.395795,2.61834 -1.857205,10.96528 -0.85077,15.39058 2.271575,9.98807 10.637745,18.15032 20.781359,20.27484 3.39961,0.71202 8.88819,0.44214 12.21939,-0.60086 z"
     style="fill:#3b3837;stroke-width:0.375"
     sodipodi:nodetypes="cscscsccscssccssscsscssssscsscsscccss" />
</svg>
